<svg xmlns="http://www.w3.org/2000/svg" xmlns:xlink="http://www.w3.org/1999/xlink" version="1.1" id="Capa_1" x="0px" y="0px" width="100px" height="100px" viewBox="0 0 100 100" enable-background="new 0 0 100 100" xml:space="preserve">
<g>
<path d="M76.775,38.505c-1.331-0.974-4.83-2.144-8.95-2.355c2.376-3.198,3.768-7.063,3.768-11.229C71.593,13.919,61.897,5,49.94,5  c-11.958,0-21.652,8.919-21.652,19.922c0,4.063,1.325,7.84,3.595,10.991c-4.604,0.551-8.57,2.197-9.987,3.057  c-3.467,2.103-11.548,8.463-9.862,19.398c0,8.284,8.51,15.008,19.017,15.008c6.852,0,12.798-2.872,16.118-7.161  c-0.001,0.009-0.004,0.02-0.005,0.028C45.611,74.423,40.292,87.696,31.532,95l37.083-0.009  c-8.603-10.364-13.992-21.375-15.618-28.749c-0.001-0.009-0.004-0.016-0.005-0.021c3.33,4.288,9.286,7.156,16.137,7.156  c10.518,0,19.03-6.726,19.03-15.01C88.802,47.296,80.145,40.969,76.775,38.505z"/>
</g>
</svg>