<svg xmlns="http://www.w3.org/2000/svg" xmlns:xlink="http://www.w3.org/1999/xlink" version="1.1" id="Ebene_1" x="0px" y="0px" width="100px" height="100px" viewBox="0 0 100 100" enable-background="new 0 0 100 100" xml:space="preserve">
<g id="Ebene_1_2_">
	<g id="Adobe" display="none">
		<g id="Ebene_1_1_" display="inline">
			<polygon fill="#000000" points="122.977,103.021 85.188,140.812 17,72.625 45.482,25.53    "/>
			<polygon fill="#000000" points="148.131,97.504 111.505,134.13 32.375,55 70.014,19.39    "/>
			<text transform="matrix(1 0 0 1 20.2715 72.3789)" fill="#000000" font-family="'HelveticaNeue-Bold'" font-size="65.6273">Fl</text>
			<g>
				<path d="M91,9v82H9V9H91 M95,5H5v90h90V5L95,5z"/>
			</g>
		</g>
		<g id="Ebene_5" display="inline">
			<path d="M52.986,62.83c0.678,1.027,1.531,1.859,2.559,2.494s2.266,0.951,3.709,0.951c1.53,0,2.811-0.306,3.84-0.918     c1.027-0.613,1.848-1.438,2.461-2.461c0.611-1.028,1.049-2.199,1.312-3.516c0.262-1.312,0.393-2.668,0.393-4.064     c0-1.4-0.131-2.746-0.393-4.037c-0.264-1.29-0.713-2.428-1.346-3.412c-0.639-0.984-1.455-1.782-2.461-2.396     c-1.012-0.612-2.276-0.919-3.811-0.919c-1.529,0-2.818,0.307-3.873,0.919c-1.049,0.613-1.896,1.422-2.521,2.428     c-0.635,1.007-1.099,2.155-1.379,3.447c-0.285,1.291-0.431,2.637-0.431,4.034c0,1.312,0.153,2.625,0.46,3.938     C51.814,60.631,52.307,61.803,52.986,62.83z M95,5v90H5V5H95z M91,9H9v82h34.38L24.87,72.49l0.02-0.11H35.1V25.85l13.88,13.88     c-1.35,0.87-2.51,1.93-3.48,3.18c-1.24,1.62-2.18,3.49-2.82,5.61c-0.63,2.13-0.95,4.32-0.95,6.6c0,2.36,0.32,4.64,0.95,6.819     c0.64,2.188,1.58,4.131,2.82,5.811c1.25,1.689,2.84,3.02,4.76,4.01c1.932,0.98,4.16,1.471,6.7,1.471c2.229,0,4.229-0.396,6-1.211     c1.771-0.81,3.21-2.14,4.3-3.97h0.131v4.33h8.859V25.63L91,40.38V9z M76.252,73.814L76.252,73.814L76.252,73.814L76.252,73.814     L76.252,73.814z"/>
		</g>
		<g id="Ebene_4" display="inline">
			<path d="M41.507,36.94c0.502,0.919,0.755,2.123,0.755,3.61c0,1.488-0.252,2.69-0.755,3.609s-1.171,1.63-2.001,2.133     c-0.832,0.503-1.794,0.843-2.888,1.017c-1.094,0.176-2.231,0.263-3.413,0.263h-8.007V33.527h8.007     c1.181,0,2.318,0.088,3.413,0.263c1.093,0.175,2.056,0.515,2.888,1.017C40.336,35.311,41.004,36.021,41.507,36.94z M95,5v90H5V5     H95z M91,9H9v82h24.38L14.94,72.561l0.15-0.181H25.2v-16.8h10.83c2.93,0,5.42-0.43,7.48-1.28c2.05-0.85,3.73-1.979,5.02-3.38     c1.29-1.4,2.23-3.01,2.82-4.82c0.592-1.82,0.895-3.67,0.895-5.55c0-1.93-0.303-3.78-0.895-5.58c-0.529-1.61-1.355-3.05-2.45-4.35     l0.07-0.09L59.6,41.16c-0.56,0.55-1.06,1.18-1.488,1.88c-0.852,1.4-1.277,3.2-1.277,5.38c0,1.49,0.312,2.75,0.92,3.78     s1.42,1.88,2.434,2.56c1,0.682,2.146,1.221,3.438,1.641c1.29,0.41,2.62,0.779,3.971,1.08c3.329,0.699,5.92,1.399,7.779,2.104     c1.857,0.701,2.79,1.75,2.79,3.146c0,0.83-0.2,1.521-0.593,2.069c-0.397,0.55-0.891,0.979-1.479,1.312     c-0.589,0.33-1.25,0.568-1.97,0.723c-0.723,0.16-1.41,0.229-2.062,0.229c-0.92,0-1.812-0.102-2.66-0.33     c-0.857-0.211-1.607-0.551-2.271-1.01c-0.647-0.462-1.188-1.052-1.603-1.771c-0.42-0.729-0.629-1.593-0.629-2.603H56.04     c0.09,2.278,0.603,4.17,1.54,5.68c0.947,1.513,2.148,2.723,3.607,3.643c1.473,0.92,3.143,1.58,5.021,1.973     c1.891,0.397,3.811,0.59,5.779,0.59c1.931,0,3.818-0.183,5.681-0.562c1.858-0.37,3.511-1.01,4.95-1.93     c1.449-0.922,2.619-2.133,3.51-3.643c0.898-1.512,1.352-3.382,1.352-5.619c0-1.568-0.312-2.893-0.92-3.973     c-0.607-1.068-1.42-1.97-2.432-2.688c-1.01-0.721-2.148-1.301-3.438-1.74c-1.301-0.43-2.621-0.801-3.971-1.109     c-1.32-0.311-2.609-0.591-3.883-0.851c-1.271-0.271-2.391-0.56-3.38-0.89c-0.979-0.33-1.778-0.75-2.392-1.28     c-0.608-0.53-0.92-1.2-0.92-2.03c0-0.7,0.17-1.26,0.521-1.68c0.352-0.41,0.78-0.73,1.28-0.95c0.51-0.22,1.06-0.36,1.68-0.43     c0.608-0.06,1.183-0.09,1.7-0.09c1.67,0,3.107,0.31,4.34,0.95c1.223,0.63,1.898,1.85,2.029,3.64h8.857     c-0.181-2.1-0.709-3.84-1.607-5.22c-0.609-0.94-1.342-1.74-2.159-2.42l0.271-0.03L91,48.63V9z"/>
		</g>
		<g id="Ebene_2" display="inline">
			<path d="M45.85,54.266H33.708l6.103-17.193h0.131L45.85,54.266z M95,5v90H5V5H95z M91,9H9v82h26.38L17,72.62l0.15-0.24h10.19     l3.68-10.438h17.52l3.54,10.438h10.699L45.35,25.75l0.13-0.22l20.629,20.62l0.021-0.02v26.25h9.32V38.45h-4.13l-5.262-5.26     l0.067-0.06v0.07h9.319v-7.58l0.277-0.23L91,40.66V9z"/>
		</g>
		<g id="Ebene_3" display="inline">
			<g>
				<path d="M9,9v82h26.38L17,72.62l0.15-0.24h10.19l3.68-10.438h17.52l3.54,10.438h10.699L45.35,25.75l0.13-0.22l20.629,20.62      l0.021-0.02v26.25h9.32V38.45h-4.13l-5.262-5.26l0.067-0.06v0.07h9.319v-7.58l0.277-0.23L91,40.66V9H9z M45.85,54.27H33.71      l6.1-17.2h0.13L45.85,54.27z"/>
			</g>
		</g>
		<path display="inline" d="M97.695,61.951c0,0.045,0.007,0.09,0.007,0.135v1.668c0,4.854-3.935,8.787-8.788,8.787H54.7v-9.33    h10.854L50,45.655L34.444,63.21H45.3v9.331H11.086c-4.854,0-8.788-3.934-8.788-8.787v-1.668c0-0.471,0.048-0.932,0.12-1.383    c-0.072-0.613-0.12-1.232-0.12-1.863c0-8.717,7.067-15.784,15.784-15.784c0.772,0,1.524,0.074,2.267,0.181    c2.318-9.528,11.967-15.778,22.255-15.778c9.292,0,17.326,5.376,21.169,13.186c1.783-0.615,3.689-0.965,5.686-0.965    c6.706,0,12.521,3.783,15.45,9.327c7.067,0.008,12.794,5.74,12.794,12.808C97.702,61.861,97.695,61.904,97.695,61.951z"/>
	</g>
	<g id="Ebene_2_1_" display="none">
		<g display="inline">
			<g>
				<path d="M65.863,14.034v30.583H35.28V14.034H65.863z M19.988,95.59V3.839h61.167v81.556h-5.098v5.1h-5.096v5.098L19.988,95.59      L19.988,95.59z M65.863,70.104h-5.098V75.2h5.098V70.104z M25.085,70.104h5.098V75.2h5.097v-5.097h5.097v-5.1H35.28v-5.098      h-5.097v5.098h-5.098V70.104z M76.057,59.909h-5.096v5.098h5.096V59.909z M76.057,8.937H25.085v40.778h45.876v-5.098h5.096      V8.937z"/>
			</g>
		</g>
	</g>
	<g id="Ebene_3_1_" display="none">
		<path display="inline" d="M89.134,32.973v-5.509h-5.509v-5.509v-5.509h-5.509v-5.509h-5.509h-5.51V5.429h-5.512H56.08h-5.51    h-5.508h-5.509h-5.509v5.509h-5.509h-5.509v5.509h-5.509v5.509v5.509h-5.509v5.509H6.5v5.509v5.509V49.5v5.509v5.509v5.51v5.511    h5.509h5.509v5.51v5.511v5.51h5.509v5.509h5.509h5.509h5.509h5.509h5.509h5.509h5.509h5.51h5.51h5.511v-5.509h5.509v-5.51v-5.511    v-5.51h5.512h5.508v-5.511v-5.51v-5.509V49.5v-5.509v-5.509v-5.509H89.134z M61.589,10.938v5.509h5.509h5.51v5.509v5.509h-5.51    h-5.509v-5.509H56.08v-5.509v-5.509H61.589z M34.044,55.009V49.5v-5.509v-5.509h5.509v-5.509h5.509h5.508h5.51h5.509v5.509h5.509    v5.509V49.5v5.509h-5.509v5.509H56.08h-5.51h-5.508h-5.509v-5.509H34.044z M28.536,16.446h5.509h5.509v-5.509h5.509v5.509v5.509    h-5.509v5.509h-5.509h-5.509v-5.509V16.446z M12.009,49.5v-5.509v-5.509h5.509v-5.509h5.509h5.509v5.509v5.509V49.5h-5.509v5.509    h-5.509h-5.509V49.5z M78.116,77.045v5.51h-5.509v5.508h-5.51h-5.512H56.08h-5.51h-5.508h-5.509h-5.509h-5.509v-5.508h-5.509    v-5.51v-5.51h5.509v-5.51h5.509h5.509v5.51v5.51h5.509v-5.51v-5.51h5.508h5.51v5.51v5.51h5.509v-5.51v-5.51h5.509h5.51v5.51h5.512    L78.116,77.045L78.116,77.045z M89.134,43.991V49.5v5.509h-5.509h-5.509V49.5h-5.509v-5.509v-5.509v-5.509h5.509h5.509v5.509    h5.509V43.991z"/>
	</g>
	<g id="Ebene_4_1_" display="none">
		<path display="inline" d="M89.134,32.973v-5.509h-5.509v-5.509v-5.509h-5.509v-5.509h-5.509h-5.51V5.429h-5.512H56.08h-5.51    h-5.508h-5.509h-5.509v5.509h-5.509h-5.509v5.509h-5.509v5.509v5.509h-5.509v5.509H6.5v5.509v5.509V49.5v5.509v5.509v5.51v5.511    h5.509h5.509v5.51v5.511v5.51h5.509v5.509h5.509h5.509h5.509h5.509h5.509h5.509h5.509h5.51h5.51h5.511v-5.509h5.509v-5.51v-5.511    v-5.51h5.512h5.508v-5.511v-5.51v-5.509V49.5v-5.509v-5.509v-5.509H89.134z M78.116,77.045v5.51h-5.509v5.508h-5.51h-5.512H56.08    h-5.51h-5.508h-5.509h-5.509h-5.509v-5.508h-5.509v-5.51v-5.51h5.509v-5.51h5.509h5.509v5.51v5.51h5.509v-5.51v-5.51h5.508h5.51    v5.51v5.51h5.509v-5.51v-5.51h5.509h5.51v5.51h5.512L78.116,77.045L78.116,77.045z M89.134,60.518v5.51h-5.509h-5.509v-5.51    h-5.509h-5.51h-5.512v-5.509h5.512V49.5v-5.509v-5.509h-5.512v-5.509H56.08h-5.51h-5.508h-5.509v5.509h-5.509v5.509V49.5v5.509    h5.509v5.509h-5.509h-5.509h-5.509v5.51h-5.509h-5.509v-5.51v-5.509h5.509h5.509V49.5h5.509v-5.509v-5.509v-5.509h-5.509v-5.509    v-5.509h5.509v5.509h5.509h5.509v-5.509h5.509v-5.509v-5.509h5.508h5.51v5.509v5.509h5.509v5.509h5.509h5.51v-5.509h5.512v5.509    v5.509h-5.512v5.509v5.509V49.5h5.512v5.509h5.509h5.511L89.134,60.518L89.134,60.518z"/>
	</g>
	<g id="Ebene_5_1_" display="none">
		<path display="inline" d="M22.188,11.062h-5.562V5.5h5.562h5.562h5.562h5.562h5.562H50h5.562h5.562h5.562v5.562h-5.562h-5.562H50    h-5.562h-5.562h-5.562H27.75H22.188z M72.25,16.625v-5.562h-5.562v5.562H72.25z M88.938,27.75v5.562v5.562v5.562V50v5.562v5.562    v5.562h-5.562v5.562h-5.562v-5.562v-5.562h5.562v-5.562V50v-5.562v-5.562v-5.562h-5.562V27.75h5.562H88.938v-5.562h-5.562h-5.562    v-5.562H72.25v5.562v5.562v5.562v5.562v5.562V50v5.562v5.562v5.562v5.562h-5.562v5.562v5.562h5.562v-5.562h5.562h5.562h5.562    V72.25H94.5v-5.562v-5.562v-5.562V50v-5.562v-5.562v-5.562V27.75H88.938z M61.125,88.938h-5.562H50h-5.562h-5.562h-5.562H27.75    h-5.562v-5.562h-5.562v5.562V94.5h5.562h5.562h5.562h5.562h5.562H50h5.562h5.562h5.562v-5.562v-5.562h-5.562L61.125,88.938    L61.125,88.938z M16.625,72.25h-5.562v5.562v5.562h5.562v-5.562V72.25z M11.062,61.125v-5.562V50v-5.562v-5.562v-5.562V27.75    v-5.562v-5.562H5.5v5.562v5.562v5.562v5.562v5.562V50v5.562v5.562v5.562v5.562h5.562v-5.562V61.125z M16.625,11.062h-5.562v5.562    h5.562V11.062z M66.438,28.5v-5.562h-5.562v-5.562h-5.562H49.75h-5.562h-5.562h-5.562H27.5h-5.562v5.562h-5.562V28.5v5.562h5.562    v5.562H27.5h5.562h5.562h5.562h5.562h5.562h5.562v-5.562h5.562V28.5H66.438z"/>
	</g>
	<g id="Ebene_7" display="none">
		<path id="hkmfda_1_" display="inline" d="M28.148,83.35c-0.793-0.226-1.098,0.012-1.649-0.312    c-1.036-0.604-1.463-2.144-0.927-3.502c0.308-0.78,1.744-1.431,1.958-2.062c0.371-1.093-0.292-3.453-0.309-5.052    c-0.058-5.604,0.48-10.489,1.34-15.043c0.702-3.717,1.476-8.051,2.679-12.056c0.371-1.235,1.242-3.206,0.927-4.122    c-0.297-0.864-1.617-0.763-1.546-1.752c0.052-0.717,1.213-1.042,1.546-1.649c0.499-0.909,0.642-2.392,1.031-3.606    c1.116-3.485,2.279-7.543,3.4-10.613c-0.429-0.816,0.193-1.819,0.309-2.988c0.087-0.871-0.148-2.092-0.206-3.297    c-0.055-1.16,0.155-2.43-0.103-3.194c-0.258-0.764-1.074-1.453-0.928-2.37c2.298-1.446,6.392-1.097,9.48-1.751    c-0.034-3.505,1.662-7.163,4.636-7.316c0.776-0.041,1.465,0.472,2.164,0.515c0.793,0.049,1.424-0.335,2.062-0.309    c3.324,0.135,4.084,3.221,4.225,7.006c3.141,0.365,6.813,0.193,8.861,1.649c0.021,0.728-0.771,1.28-0.929,1.958    c-0.174,0.759,0.062,1.993,0,3.4c-0.058,1.381-0.28,2.938-0.103,3.916c0.082,0.446,0.479,0.844,0.516,1.237    c0.055,0.558-0.253,0.882-0.206,1.339c0.108,1.064,0.815,2.296,1.235,3.503c0.918,2.639,1.582,4.604,2.371,7.109    c0.412,1.313,0.681,2.911,1.133,3.606c0.439,0.677,1.531,0.731,1.546,1.546c0.021,0.988-1.188,1.042-1.442,1.751    c-0.4,1.125,0,3.896,0,5.874c0,13.878,0.032,30.731,0,42.966c0.53,0.559,0.438,1.992,0,2.887    c-0.933,1.896-4.427,2.775-7.109,3.396c-8.041,1.864-21.957,1.877-28.542-0.824c-1.492-0.607-3.417-1.789-3.504-3.504    c-0.029-0.58,0.235-1.002,0.31-1.646c0.165-1.425-0.126-3.112,0-4.431C30.964,85.105,29.512,83.734,28.148,83.35z M48.858,9.674    c1.588,0.175,3.873,0.166,5.46,0c0.232-2.368-0.312-4.745-1.752-5.77C50.327,4.824,48.95,6.605,48.858,9.674z M32.062,46.357    c-2.078,7.181-4.529,18.793-3.503,29.057c0.166,1.658-0.164,1.999,0.824,2.679c0.686,0.472,1.709,1.083,2.885,1.134    C32.298,68.525,32.209,57.598,32.062,46.357z"/>
	</g>
	<g id="Ebene_8" display="none">
		<path display="inline" d="M65.421,87.163c0.076,11.442-15.838,10.42-15.838,10.42c-14.171,0-15.005-8.867-15.005-8.867V49.461    c0-15.915,2.349-18.339,2.349-18.339c5.759-14.171,5.002-22.204,5.002-22.204h-0.17l-0.625-0.512l0.057-1.279    c0.228-0.142,1.023-0.625,1.023-0.625c-0.512,0.057-1.42-0.255-1.42-0.255V4.171c0.084-0.341,0.653-0.654,0.653-0.654    c0.114-0.341,1.052-0.795,1.052-0.795c11.167-0.739,14.833,0,14.833,0c0.654,0.142,1.023,0.682,1.023,0.682    c0.426,0.028,0.736,0.597,0.736,0.597l-0.086,2.16l-1.273,0.332l0.414,0.379l0.604,0.378v1.156l-0.758,0.512    c-1.438,4.546,3.521,19.438,3.521,19.438c3.713,6.214,3.902,14.286,3.902,14.286v44.106"/>
	</g>
	<g id="Ebene_9" display="none">
		<path display="inline" d="M55.355,5.465c1.16,1.031,0.658,3.72,1.096,5.474c7.415,0.16,8.924,5.266,10.947,11.495    c0.539,1.659,1.136,3.456,1.644,5.201c0.554,1.898,0.476,4.068,1.095,5.748c0.694,1.879,2.877,3.227,3.283,6.021    c0.383,2.604-0.798,7.389-0.818,10.674c-0.062,9.248-0.52,20.926,0.272,28.738c0.229,2.289,0.946,3.877,0.821,5.475    C72.85,94.93,58.654,96.102,44.409,95.238c-8.322-0.504-17.213-2.312-17.518-10.399c-0.079-2.084,0.769-4.058,0.822-5.748    c0.376-11.856-0.55-25.983-1.368-36.403c-0.631-8.042,4.263-14.324,7.663-18.885c2.719-3.644,5.644-6.916,8.485-10.674    c-1.093-1.87-0.73-4.666-0.273-7.117C44.778,4.048,52.096,4.226,55.355,5.465z M58.094,27.088    c1.342,2.921,2.449,6.242,4.379,6.843c0.08-5.836-1.709-12.152-3.832-16.696C52.35,16.173,56.521,23.661,58.094,27.088z"/>
	</g>
	<g id="Ebene_10" display="none">
		<path display="inline" d="M96.932,62.014l-0.922-25.97H3.683L3.069,60.787l7.567,1.02l12.377,0.029    c-0.2-0.445-0.312-0.938-0.312-1.457c0-1.977,1.602-3.578,3.578-3.578c1.975,0,3.578,1.602,3.578,3.578    c0,0.525-0.116,1.023-0.319,1.473l5.146,0.015c-0.207-0.453-0.326-0.955-0.326-1.484c0-1.979,1.602-3.577,3.578-3.577    c1.977,0,3.579,1.604,3.579,3.577c0,0.537-0.122,1.043-0.334,1.5l33.734,0.082c-0.235-0.479-0.373-1.014-0.373-1.582    c0-1.979,1.604-3.577,3.58-3.577s3.578,1.6,3.578,3.575c0,0.574-0.14,1.117-0.382,1.599L96.932,62.014z M5.267,42.946v-5.291    h88.571v5.291v18.251h-9.432V42.946H5.267z M63.318,55.521h-9.437H20.221h-9.432V47.24h71.699v8.281H63.318L63.318,55.521z     M29.166,60.379c0,1.594-1.293,2.889-2.887,2.889c-1.595,0-2.887-1.295-2.887-2.889c0-1.595,1.292-2.888,2.887-2.888    C27.873,57.491,29.166,58.784,29.166,60.379z M40.935,60.379c0,1.655-1.343,2.999-3,2.999c-1.656,0-2.999-1.344-2.999-2.999    c0-1.656,1.342-2.999,2.999-2.999C39.592,57.38,40.935,58.723,40.935,60.379z M81.12,60.379c0,1.655-1.343,2.999-2.999,2.999    c-1.657,0-3.001-1.344-3.001-2.999c0-1.656,1.344-2.999,3.001-2.999C79.777,57.38,81.12,58.723,81.12,60.379z"/>
	</g>
	<g id="Ebene_11" display="none">
		<path display="inline" d="M8.647,42.919c0-0.017,0.002-0.034,0.002-0.051c0,0.192,0.017,0.382,0.029,0.573H8.67    C8.663,43.266,8.647,43.094,8.647,42.919z M48.935,19.642c-21.825,0-39.584,10.03-40.255,22.545    c0.671-10.894,18.43-21.562,40.255-21.562c21.825,0,39.584,10.668,40.254,21.562C88.52,29.672,70.76,19.642,48.935,19.642z     M90.311,49.68c0.006-0.174,0.021-0.346,0.021-0.52c0-1.904-0.396-3.754-1.124-5.529c-0.001-0.064-0.006-0.127-0.008-0.189    c0.007-0.176,0.021-0.348,0.021-0.521c0-0.018-0.002-0.035-0.002-0.052c-0.006,1.288-0.261,2.546-0.729,3.766    c-0.256,2.382-0.325,5.285-1.295,7.016c-1.104,1.976-3.323,2.434-5.289,3.162c-2.156,0.804-3.225,1.399-4.411,3.928    c-0.446,0.945-0.104,1.82-0.935,2.805c-2.229,2.645-3.985-0.645-6.804,0.521c-1.801,0.748-1.586,2.369-4.188,2.912    c-1.285,0.27-2.797,0.032-3.756-0.373c-2.998-1.27-3.981-2.379-7.237-0.938c-1.021,0.451-3.123,2.924-3.91,2.957    c-1.341,0.06-1.31-1.271-2.291-1.95c-1.284-0.89-8.803-0.271-9.25,1.721c-2.692-1.369-4.078-5.246-6.79-6.26    c-2.956-1.1-4.755,1.151-7.153-1.229c-1.611-1.598-3.059-2.707-4.656-3.814c-2.29-1.138-4.308-2.41-6-3.795    c-0.858,0.085-1.927,0.505-2.269,1.109c-1.684-3.416-3.794-6.981-3.587-10.958c-0.002,0.062-0.007,0.125-0.008,0.189    c-0.728,1.775-1.124,3.625-1.124,5.529c0,0.174,0.017,0.346,0.022,0.52c-0.006,0.174-0.022,0.346-0.022,0.52    c0,0.176,0.017,0.349,0.022,0.521c-0.006,0.172-0.022,0.344-0.022,0.521c0,0.174,0.017,0.346,0.022,0.521    c-0.006,0.174-0.022,0.346-0.022,0.52c0,0.176,0.017,0.348,0.022,0.521c-0.006,0.172-0.022,0.344-0.022,0.52    c0,0.174,0.017,0.346,0.022,0.52c-0.006,0.174-0.022,0.346-0.022,0.521c0,0.175,0.017,0.348,0.022,0.521    c-0.006,0.172-0.022,0.344-0.022,0.52c0,0.175,0.017,0.347,0.022,0.521c-0.006,0.174-0.022,0.346-0.022,0.521    c0,13.211,18.533,23.918,41.396,23.918c22.863,0,41.397-10.713,41.397-23.925c0-0.174-0.018-0.346-0.021-0.521    c0.006-0.174,0.021-0.346,0.021-0.521c0-0.177-0.018-0.349-0.021-0.521c0.006-0.174,0.021-0.346,0.021-0.521    c0-0.174-0.018-0.346-0.021-0.521c0.006-0.174,0.021-0.346,0.021-0.52c0-0.178-0.018-0.35-0.021-0.521    c0.006-0.174,0.021-0.346,0.021-0.521s-0.018-0.347-0.021-0.521c0.006-0.174,0.021-0.346,0.021-0.521    c0-0.178-0.018-0.35-0.021-0.521c0.006-0.174,0.021-0.346,0.021-0.521C90.331,50.025,90.314,49.854,90.311,49.68z M89.189,42.187    c0.013,0.227,0.026,0.453,0.027,0.681c0-0.015,0.004-0.029,0.004-0.044C89.223,42.611,89.203,42.399,89.189,42.187z M8.65,42.868    c0-0.229,0.018-0.455,0.03-0.681c-0.013,0.212-0.032,0.424-0.032,0.637C8.647,42.839,8.649,42.853,8.65,42.868z M32.957,47.535    c3.755-2.16,9.513-3.546,15.978-3.546c6.465,0,12.223,1.386,15.979,3.546c1.85-1.063,3.199-2.316,3.92-3.683    c0.377-0.716,0.591-1.461,0.591-2.231c0-5.224-9.174-9.459-20.489-9.459s-20.489,4.235-20.489,9.459    c0,0.673,0.17,1.326,0.46,1.958C29.582,45.052,30.986,46.401,32.957,47.535z"/>
	</g>
	<g id="Ebene_12" display="none">
		<path display="inline" d="M29.765,43.531c0.021,0,0.041,0,0.061,0c0,0.018,0,0.035,0,0.053    C29.826,43.584,29.763,43.529,29.765,43.531z M61.574,52.21c0-2.982,0-5.758,0-8.736c1.511,0,2.938,0,4.365,0    c0-1.628,0-3.047,0-4.542c-3.099,0-6.062,0-9.024,0c0,2.963,0,5.927,0,9.021c-2.951,0-5.772,0-8.854,0c0-4.541,0-9.077,0-13.613    c-1.511,0-3.021,0.001-4.532,0.002c0,1.485,0,2.972,0,4.654c-4.776,0-9.263,0-13.703,0c0,1.648,0,3.093,0,4.535    c3.008,0.002,6.016,0.002,9.151,0.002c0,1.643,0,3.025,0,4.604c1.56,0,2.99,0,4.367,0c0,1.506,0,2.8,0,4.23    c-1.529,0-2.908,0-4.318,0c0,6.152,0,12.165,0,18.265c1.558,0,2.997,0,4.436,0c0-3.009,0-6.019,0-9.224c1.692,0,3.116,0,4.734,0    c0-1.625,0-3.049,0-4.598c1.453,0,2.703,0,4.147,0c0-1.56,0-2.983,0-4.369c1.628,0,3.046,0,4.595,0c0,3.047,0,5.949,0,8.93    c1.555,0,2.975,0,4.596,0c0-1.529,0-2.956,0-4.516c1.635,0,3.07,0,4.508,0c0-1.481,0-2.967,0-4.646    C64.402,52.21,62.979,52.21,61.574,52.21z M56.915,38.932c0-0.019,0-0.038,0-0.056c-0.019,0-0.035,0-0.054,0    c0,0.019,0,0.038,0,0.056C56.88,38.932,56.896,38.932,56.915,38.932z M66.039,56.855c0,0.019,0,0.035,0,0.055l0.054-0.055    C66.075,56.855,66.057,56.855,66.039,56.855z M97.75,3.069c0,10.432,0,20.734,0,31.138c-10.512,0-20.939,0-31.523,0    c0-10.306,0-20.653,0-31.138C76.645,3.069,87.118,3.069,97.75,3.069z M93.134,7.222c-7.474,0-14.841,0-22.329,0    c0,7.581,0,14.994,0,22.339c7.555,0,14.967,0,22.329,0C93.134,22.035,93.134,14.667,93.134,7.222z M3.093,66.111    c10.416,0,20.671,0,31.073,0c0,10.515,0,20.988,0,31.593c-10.316,0-20.662,0-31.073,0C3.093,87.164,3.093,76.646,3.093,66.111z     M7.212,93.091c7.61,0,15.023,0,22.407,0c0-7.519,0-14.886,0-22.312c-7.512,0-14.925,0-22.407,0    C7.212,78.264,7.212,85.631,7.212,93.091z M34.225,34.21c-10.387,0-20.688,0-31.141,0c0-10.316,0-20.663,0-31.144    c10.299,0,20.646,0,31.141,0C34.225,13.508,34.225,23.81,34.225,34.21z M29.616,7.226c-7.47,0-14.837,0-22.338,0    c0,7.569,0,14.981,0,22.34c7.551,0,14.964,0,22.338,0C29.616,22.044,29.616,14.676,29.616,7.226z M43.389,74.837    c0.021,0,0.041,0,0.061,0c0.002,0.002-0.061-0.054-0.061-0.054C43.389,74.801,43.389,74.818,43.389,74.837z M39.058,97.73    c3.06,0,5.963,0,8.991,0c0-1.525,0-2.957,0-4.389c-0.017,0-0.033,0-0.049,0c0-0.019,0-0.035,0-0.057c-1.423,0-2.848,0-4.386,0    c0-1.588,0-3.001,0-4.604c1.494,0,2.968,0,4.442,0c0-0.021,0-0.037,0-0.057c0.018,0,0.036,0,0.054,0c0-1.434,0-2.865,0-4.436    c1.354,0,2.643,0,4.06,0c0,1.393,0,2.809,0,4.436c-1.355,0-2.708,0-4.06,0c0,0.02,0,0.036,0,0.057c-0.018,0-0.037,0-0.055,0    c-0.018,1.531-0.036,3.066-0.056,4.604c0.016,0,0.033,0,0.049,0c0,0.021,0,0.038,0,0.057c2.892,0.003,5.784,0.003,8.882,0.003    c0,1.521,0,2.947,0,4.339c3.164,0,6.118,0,9.037,0c0-3.062,0-5.969,0-9.082c-1.523,0-2.953,0-4.576,0c0-4.692,0-9.183,0-13.625    c-1.59,0-2.969,0-4.553,0c0,1.524,0,2.957,0,4.338c-4.566,0-8.923,0-13.45,0c0-1.592,0-3.035,0-4.479    c-1.475-0.003-2.946-0.003-4.331-0.003C39.058,82.708,39.058,90.24,39.058,97.73z M25.485,39.016c-7.605,0-15.006,0-22.427,0    c0,3.063,0,6.012,0,9.039c1.432,0,2.741,0,4.05,0c0-1.482,0-2.964,0-4.427c4.76,0,9.235,0,13.911,0c0,1.555,0,2.979,0,4.53    c1.58,0,2.958,0,4.533,0c0,1.427,0,2.725,0,4.003c3.027,0,5.849,0,8.604,0c0-1.433,0-2.726,0-4.151c-1.533,0-2.911,0-4.388,0    c0-1.562,0-2.995-0.002-4.427c-1.361-0.002-2.724-0.002-4.279-0.002C25.485,41.89,25.485,40.461,25.485,39.016z M29.823,43.583    c0.002,0.001-0.061-0.054-0.059-0.051c0,0.017,0,0.034,0,0.051C29.784,43.583,29.804,43.583,29.823,43.583z M56.952,11.7    c1.555,0,2.981,0,4.387,0c0-1.629,0-3.049,0-4.4c-3.092,0-6.042,0-9.12,0c0,3.062,0,5.967,0,9c-4.44,0-8.745,0-13.174,0    c0,1.688,0,3.108,0,4.466c6.02,0,11.898,0,17.908,0C56.952,17.711,56.952,14.806,56.952,11.7z M88.576,61.572    c-1.583,0-2.96,0-4.536,0c0,3.039,0,5.994,0,9.146c-1.626,0-3.054,0-4.423,0c0,1.505,0,2.798,0,4.226c1.529,0,2.906,0,4.484,0    c0,1.561,0,2.988,0,4.49c1.637,0,3.074,0,4.515,0c0-1.483,0-2.973,0-4.649c1.706,0,3.131,0,4.526,0c0-2.985,0-5.763,0-8.743    c-1.52,0-2.947,0-4.566,0C88.576,64.414,88.576,62.986,88.576,61.572z M79.502,83.95c0,0.021,0,0.041,0,0.062    c-0.002,0.002,0.053-0.062,0.053-0.062C79.537,83.95,79.52,83.95,79.502,83.95z M74.818,79.391c0-1.562,0-2.99,0-4.365    c-3.036,0-5.862,0-8.643,0c0,1.531,0,2.91,0,4.492c1.529,0,2.961,0,4.586,0c0,1.631,0,3.058,0,4.436c3.053,0,5.896,0,8.737,0    c0.002-1.479,0.002-2.955,0.002-4.562C77.779,79.391,76.398,79.391,74.818,79.391z M79.498,52.38c1.639,0,3.062,0,4.615,0    c0,1.581,0,2.959,0,4.394c1.559,0,2.979,0,4.602,0c0-1.533,0-2.963,0-4.582c1.626,0,3.051,0,4.42,0c0-1.515,0-2.829,0-4.141    c-4.547,0.021-9.092,0.044-13.637,0.067C79.498,49.474,79.498,50.831,79.498,52.38z M93.135,47.997c0,0.018,0,0.036,0,0.054    c0.021,0,0.04,0,0.061,0c0-0.017,0-0.035,0.004-0.052c-0.021,0-0.04,0-0.062,0L93.135,47.997z M79.443,48.118    c0.019,0,0.037,0,0.055,0c0-0.019,0-0.037,0-0.055L79.443,48.118z M11.755,56.855c-0.018,0-0.036,0-0.054,0    c0,0.019,0,0.035,0,0.055L11.755,56.855z M3.077,52.357c0,1.615,0,3.031,0,4.498c2.969,0,5.797,0,8.624,0c0-1.479,0-2.961,0-4.627    c1.689,0,3.111,0,4.477,0c0-1.49,0-2.779,0-4.123c-3.103,0-6.059,0-9.015,0c0,1.354,0,2.708,0,4.25    C5.621,52.357,4.327,52.357,3.077,52.357z M7.163,48.109c0-0.018,0-0.036,0-0.054c-0.018,0-0.037,0-0.055,0    c0,0.018,0,0.036,0,0.054C7.126,48.109,7.145,48.109,7.163,48.109z M79.443,48.118l0.055-0.054c-0.018,0-0.036,0-0.055,0    C79.443,48.082,79.443,48.1,79.443,48.118z M74.795,43.528c0-1.701,0-3.125,0-4.535c-1.451,0-2.697,0-4.033,0    c0,4.437,0,8.782,0,13.187c1.391,0,2.684,0,4.176,0c0-1.406,0-2.704,0-4.117c1.633,0,3.071,0,4.508,0    c-0.004-1.512-0.008-3.023-0.012-4.535C77.952,43.528,76.468,43.528,74.795,43.528z M11.755,56.855l-0.054,0.055    c0.018,0,0.036,0,0.054,0C11.755,56.893,11.755,56.874,11.755,56.855z M25.364,61.354c0-1.549,0-2.968,0-4.44    c-4.633,0-9.122,0-13.609,0c0,1.479,0,2.965,0,4.44C16.45,61.354,20.923,61.354,25.364,61.354z M88.543,83.967    c0,0.018,0,0.036,0,0.055c0.021,0,0.041,0,0.061,0c0-0.019,0-0.035,0.002-0.053c-0.021,0-0.041,0-0.061,0L88.543,83.967z     M79.502,84.012c0.018,0,0.034,0,0.051,0c0-0.02,0-0.039,0-0.059C79.555,83.95,79.5,84.014,79.502,84.012z M79.551,88.668    c1.518,0,2.944,0,4.561,0c0,1.621,0,3.048,0,4.541c1.636,0,3.07,0,4.508,0c-0.025-3.062-0.051-6.126-0.073-9.188    c-2.998-0.006-5.993-0.008-8.987-0.012C79.551,85.499,79.551,86.986,79.551,88.668z M79.352,65.973c0-3.05,0-5.996,0-8.951    c-1.539,0-2.959,0-4.58,0c0,1.561,0,2.98,0,4.564c-1.516,0-2.83,0-4.144,0c-0.002,1.475-0.002,2.946-0.002,4.387    C73.743,65.973,76.518,65.973,79.352,65.973z M70.574,61.586c0.018,0,0.035,0,0.054,0c0-0.021,0-0.041,0-0.062    c-0.019,0-0.034,0-0.052,0c0,0.021,0,0.041,0,0.062H70.574z M56.915,34.281c1.479,0,2.96,0,4.438,0c0-3.027,0-5.841,0-8.641    c-3.072,0-6.02,0-9.027,0c0,1.435,0,2.744,0,4.051c1.438,0,2.879,0,4.589,0C56.915,31.31,56.915,32.796,56.915,34.281z     M52.326,29.692c-0.02,0-0.038,0-0.057,0c0,0.018,0,0.035,0,0.053c0.019,0,0.037,0,0.057,0    C52.326,29.727,52.326,29.709,52.326,29.692z M47.924,7.267c-3.01,0-5.958,0-8.875,0c0,1.548,0,2.968,0,4.425    c3.001,0,5.857,0,8.875,0C47.924,10.219,47.924,8.757,47.924,7.267z M57.018,70.521c3.08,0,6.029,0,8.961,0    c0-1.521,0-2.896,0-4.34c-3.045,0-5.992,0-8.961,0C57.018,67.713,57.018,69.133,57.018,70.521z M39.037,25.636    c0,2.946,0,5.763,0,8.652c1.566,0,3.002,0,4.437,0c0-2.878,0-5.757,0-8.652C41.854,25.636,40.437,25.636,39.037,25.636z     M43.474,34.288c0,0.018,0,0.036,0,0.054c0.018,0,0.036,0,0.054,0c0-0.018,0-0.036,0-0.054    C43.51,34.288,43.492,34.288,43.474,34.288z M70.783,97.764c1.365,0,2.613,0,3.938,0c0-3.162,0-6.111,0-9.011    c-1.4,0-2.65,0-3.938,0C70.783,91.809,70.783,94.756,70.783,97.764z M88.67,93.264c0-0.019,0-0.035,0-0.055    c-0.018,0-0.036,0-0.054,0c0,0.02,0,0.036,0,0.055C88.634,93.264,88.652,93.264,88.67,93.264z M93.104,97.706    c0-1.545,0-2.961,0-4.442c-1.565,0-3.002,0-4.434,0c0,1.479,0,2.959,0,4.442C90.296,97.706,91.712,97.706,93.104,97.706z     M88.669,79.486c0-0.02,0.001-0.035,0.001-0.053c-0.018,0-0.036,0-0.054,0c0,0.018,0,0.033,0,0.053    C88.634,79.486,88.65,79.486,88.669,79.486z M93.094,83.971c0-1.615,0-3.025,0-4.48c-1.57,0-2.998,0-4.425,0    c-0.021,1.49-0.045,2.984-0.063,4.479C90.126,83.971,91.645,83.971,93.094,83.971z M52.322,38.876c1.568,0,3.055,0,4.539,0    c0-1.513,0-3.026,0-4.539c-1.514,0-3.025,0-4.539,0C52.322,35.775,52.322,37.216,52.322,38.876z M56.861,34.337    c0.019,0,0.035,0,0.054,0c0-0.019,0-0.037,0-0.056c-0.019,0-0.035,0-0.054,0C56.861,34.3,56.861,34.318,56.861,34.337z     M93.348,61.357c1.526,0,2.945,0,4.346,0c0-1.547,0-2.965,0-4.381c-1.514,0-2.889,0-4.346,0    C93.348,58.577,93.348,59.953,93.348,61.357z M70.576,61.523c0.002-1.522,0.002-3.045,0.002-4.613c-1.629,0-3.059,0-4.485,0    c0,1.479,0,2.959,0,4.617C67.719,61.527,69.148,61.527,70.576,61.523z M66.039,56.91c0.018,0,0.036,0,0.054,0    c0-0.018,0-0.036,0-0.055L66.039,56.91z M29.794,61.389c1.587,0,2.961,0,4.408,0c0-1.514,0-2.933,0-4.375c-1.531,0-2.95,0-4.408,0    C29.794,58.514,29.794,59.889,29.794,61.389z M79.488,43.474c-0.021,0-0.036,0-0.055,0c0,0.018,0,0.037,0,0.055    c0.019,0,0.033,0,0.055,0C79.488,43.51,79.488,43.492,79.488,43.474z M83.932,39.041c-1.547,0-2.963,0-4.443,0    c0,1.568,0,3,0,4.433c1.479,0,2.961,0,4.443,0C83.932,41.848,83.932,40.432,83.932,39.041z M88.784,39.028    c0,1.544,0,2.958,0,4.435c1.563,0,2.993,0,4.424,0c0-1.477,0-2.953,0-4.435C91.593,39.028,90.178,39.028,88.784,39.028z     M93.208,43.463c0,0.018,0,0.036,0,0.054c0.019,0,0.035,0,0.054,0c0-0.018,0-0.036,0-0.054    C93.244,43.463,93.227,43.463,93.208,43.463z M97.688,43.517c-1.569,0-3,0-4.426,0c-0.021,1.493-0.045,2.986-0.062,4.481    C94.718,48,96.238,48,97.688,48C97.688,46.385,97.688,44.974,97.688,43.517z M47.939,74.787c0-1.487,0-2.771,0-4.102    c-1.571,0-2.999,0-4.424,0c-0.022,1.364-0.044,2.729-0.064,4.1C44.973,74.787,46.491,74.787,47.939,74.787z M43.515,70.688    c0-0.02,0-0.037,0.001-0.056c-0.018,0-0.036,0-0.054,0c0,0.019,0,0.036,0,0.056C43.479,70.688,43.498,70.688,43.515,70.688z     M43.45,74.837c0-0.019,0-0.034,0.001-0.052c-0.02,0-0.04,0-0.06,0C43.389,74.783,43.452,74.839,43.45,74.837z M52.27,29.745    c-1.355,0-2.714,0-4.157,0c0,1.66,0,3.101,0,4.54c1.385,0,2.772,0,4.157,0C52.27,32.771,52.27,31.258,52.27,29.745z     M48.113,34.284c-0.018,0-0.035,0-0.052,0c0,0.019,0,0.038,0,0.056c0.018,0,0.035,0,0.052,0    C48.113,34.322,48.113,34.303,48.113,34.284z M52.27,34.284c0,0.018,0,0.035,0,0.053c0.021,0,0.035,0,0.056,0    c0-0.018,0-0.035,0-0.053C52.305,34.284,52.287,34.284,52.27,34.284z M88.564,11.835c-4.652,0-9.088,0-13.573,0    c0,4.58,0,9.059,0,13.54c4.598,0,9.077,0,13.573,0C88.564,20.806,88.564,16.372,88.564,11.835z M11.84,88.568    c4.539,0,8.973,0,13.531,0c0-4.646,0-9.125,0-13.539c-4.621,0-9.101,0-13.531,0C11.84,79.62,11.84,84.055,11.84,88.568z     M25.374,11.886c-4.616,0-9.096,0-13.539,0c0,4.587,0,9.021,0,13.538c4.535,0,8.969,0,13.539,0    C25.374,20.792,25.374,16.312,25.374,11.886z"/>
	</g>
	<g id="Ebene_13" display="none">
		<path id="_x37_e9LC2.tif" display="inline" d="M9.767,12.084c0.743-1.431,2.153-2.894,3.655-3.762    c2.847-1.646,9.986-1.403,12.36,0.538c0.587,0.479,0.98,1.195,1.505,1.72c1.383,1.383,3.24,2.166,3.977,3.547    c-0.168,0.966-1.188,1.048-1.29,1.935c-0.068,0.595,1.113,1.634,1.505,2.15c1.587,2.091,3.719,4.404,5.804,5.589    c2.727,1.549,6.262,2.191,9.781,3.117c3.609,0.949,7.778,0.241,11.93,0.43c7.021,0.319,13.908,0.638,18.486,3.225    c1.963,0.058,3.348,0.315,4.19,1.505c0.444,0.626,0.392,1.435,0.752,2.365c0.399,1.024,1.323,1.844,1.827,2.794    c1.686,3.171,1.854,6.848,2.58,11.286c0.538,3.292,2.811,6.819,3.652,10.104c0.338,1.311,0.424,2.566,0.859,3.652    c0.496,1.234,1.497,2.802,2.258,3.871c0.696,0.979,2.078,1.679,2.256,2.899c0.074,0.509-0.082,1.04-0.104,1.612    c-0.131,2.973-0.362,7.188-0.215,10.314c0.062,1.324,0.854,2.66,0.215,4.192c-0.354,0.187-0.839,0.696-1.396,0.86    c-0.319,0.094-0.627-0.071-1.073,0c-0.558,0.087-0.978,0.535-1.29,0.537c-0.585,0.002-1.082-0.506-1.506-0.754    c-0.301,0.234-0.879,0.646-1.396,0.321c-0.26-0.681-0.096-1.796,0.537-1.935c0.061-0.155,0.6-0.827,1.075-1.186    c1.448-5.713,0.215-11.024-2.042-14.726c-0.585-0.958-1.659-1.794-2.473-2.794c-0.797-0.98-1.393-2.202-2.149-3.117    c-1.104-1.33-2.498-2.396-3.547-3.762c-1.097-1.43-1.979-2.956-3.332-3.979c-1.294,1.705-0.353,3.776-0.322,5.481    c0.017,0.928-0.112,1.617,0.215,2.474c0.402,1.048,1.228,2.281,1.935,3.226c0.881,1.168,2.033,1.844,2.15,3.654    c0.068,1.061-0.474,2.215-0.646,3.115c-0.316,1.657-0.316,3.436-0.753,5.268c-0.2,0.843-0.553,4.148-1.074,4.943    c-0.954,1.447-4.451,1.514-6.449,0.858c0.194-1.532,1.561-1.403,2.365-2.148c1.115-1.034,1.678-4.017,1.72-5.805    c0.025-1.104-0.329-2.981-0.753-4.191c-0.438-1.245-0.949-2.78-1.396-3.548c-0.738-1.265-2.189-1.788-3.225-3.01    c-1.232-1.458-2.166-3.227-3.225-4.729c-1.166-1.656-2.055-3.406-2.58-5.27c-1.477,0.255-2.816-0.446-2.579-2.257    c-1.703,0.579-3.424,1.53-5.481,2.042c-2.133,0.529-4.437,0.582-6.557,1.183c-1.967,0.56-3.517,1.354-5.375,2.364    c-1.613,0.882-3.555,2.052-4.191,3.438c-0.398,0.871-0.144,1.754-0.215,2.688c-0.073,0.96-0.534,2.116-0.752,3.332    c-0.204,1.137-0.355,2.36-0.538,3.548c-0.359,2.334-1.098,4.658-1.289,6.771c-0.13,1.425,0.3,2.771,0,3.869    c-0.128,0.467-0.643,0.758-0.86,1.291c-0.574,1.4-0.099,3.314-0.967,4.621c0.116,0.676-0.179-0.016-0.538,0.32    c-0.171,0.16-0.146,0.535-0.322,0.646c-0.169,0.104-0.476-0.106-0.752,0c-0.325,0.127-0.732,0.968-1.397,0.859    c-0.304-0.17,0.243-0.574-0.107-0.754c-0.976-0.207-1.658,0.645-2.365,0.754c-0.44,0.046-0.058-0.729-0.43-0.754    c-0.813,0.159-1.525-0.205-2.257,0.105c0.227-1.852,1.792-2.361,2.902-3.33c1.782-2.686,1.7-6.523,2.15-10.965    c0.356-3.521,0.821-7.582,0.752-11.717c-0.015-0.873-0.169-1.642-0.645-2.256c-0.653,0.776-0.285,1.774-0.43,2.688    c-0.087,0.55-0.447,1.049-0.537,1.611c-0.204,1.27-0.065,2.564-0.323,3.868c-0.644,3.254-1.505,7.101-1.72,10.644    c0.293,0.642,0.647,1.541,0.43,2.363c-0.468,0.223-1.104,0.055-1.612,0c-0.604,0.795-0.934,1.892-1.397,3.01    c-0.361,0.871-0.718,2.487-1.505,2.899c-0.361,0.19-1.014,0.088-1.504,0.218c-0.909,0.237-1.514,0.592-2.257,0.536    c-0.403-0.028-0.767-0.27-1.182-0.321c-1.055-0.14-2.286,0.315-3.332-0.215c-0.208-1.354,1.527-2.242,2.687-2.901    c2.574,0.687,4.231-2.837,4.944-5.589c0.05-0.194,0.09-0.396,0.107-0.537c0.837-6.776-0.288-13.562-1.075-19.776    c-0.311-2.457-1.137-5.026-1.935-7.095c-0.85-2.2-2.008-4.479-1.935-6.986c0.049-1.675,0.116-2.736-0.215-4.299    c-0.438-2.074-0.839-3.193-1.72-4.944c-1.375-2.734-3.094-5.727-3.547-9.351c-2.219-1.041-3.289-3.232-6.342-3.439    c-0.982-0.702-1.141-2.227-2.687-2.364c-1.519-1.484-0.765-4.513-0.215-6.557C6.586,12.075,7.166,11.79,9.767,12.084z"/>
	</g>
	<g id="Ebene_14" display="none">
		<path display="inline" d="M90.635,50.749c-1.101-0.7-2.13-1.484-3.236-2.188c-2.104-1.339-4.498-3.188-6.736-4.112    c-3.604-1.487-8.436-0.624-12.688-0.263c-1.269,0.107-3.177,0.551-4.023,0.087c-1.246-0.679-1.562-4.799-1.926-6.737    c-0.914-4.857-1.834-9.463-2.801-14.438c-0.22-1.123-0.429-2.469-0.701-3.587c-0.207-0.851-0.588-1.86-1.381-2.226l-1.188-5.617    L55.91,11.46H19.331l0.882,6.397c-0.006-0.003-0.012-0.007-0.017-0.009c-1.318-0.55-3.129,1.663-3.326,2.625    c-0.411,2.007,0.335,4.752,0.612,6.913c0.301,2.35,0.512,4.646,0.788,6.913c0.595,4.883,1.227,9.479,1.4,13.738    c-4.53,0.779-10.26,0.357-12.338,3.588c0,0.7,0,1.398,0,2.1c0.029,0,0.058,0,0.088,0c0.54,4.85,1.25,9.791,2.1,14.438    c0.394,2.157,1.33,4.188,2.1,6.214c0.779,2.045,1.309,4.342,2.275,5.95c2.124,3.534,7.792,2.137,12.425,1.573    c1.341,1.854,3.019,4.477,4.638,6.648c1.197,1.608,1.9,2.197,4.726,1.928c0.906-0.088,1.956-0.068,2.449-0.612    c-0.12-1.3-0.773-2.45-1.225-3.587c-0.899-2.27-1.833-4.51-2.8-6.826c-0.452-1.082-1.151-2.166-1.138-3.412l39.725-4.551    c1.972-1.153,3.011,1.578,3.938,2.801c1.608,2.119,6.674,9.479,7.524,8.925c0.958-0.622-0.363-2.026-0.875-2.8    c-1.214-1.705-2.726-3.048-3.589-4.812c4.17-1.211,10.152,0.092,11.899-3.5c1.089-2.231,1.272-5.209,1.839-7.963    c0.562-2.752,0.752-5.608,1.398-8.312c0-0.583,0-1.166,0-1.749C94.043,52.434,92.159,51.719,90.635,50.749z M17.136,53.17    c-0.976,0-1.768-0.277-1.768-0.62c0-0.342,0.792-0.62,1.768-0.62c0.976,0,1.768,0.278,1.768,0.62    C18.903,52.893,18.112,53.17,17.136,53.17z M19.934,11.985h35.548l1.101,5.198l5.847,27.6l-1.63,0.15l-20.563,1.892    c-5.115,0.375-10.231,0.706-15.359,1.023L19.934,11.985z M22.675,56.305c-1.377,0-2.494-0.391-2.494-0.875    c0-0.48,1.116-0.875,2.494-0.875c1.378,0,2.494,0.395,2.494,0.875C25.168,55.914,24.052,56.305,22.675,56.305z"/>
	</g>
	<g id="Ebene_15" display="none">
		<path display="inline" d="M80.357,15.336c-0.428-2.772-0.76-4.773-2.285-7.314c-0.663-1.014-1.203-1.784-2.592-2.439    c-13.666-1.41-26.776-2.182-40.996-2.286c-8.659,3.197-11.449,12.73-14.935,21.335c0.737,17.804,1.405,35.677,2.133,53.49    c0.19,1.308-0.737,1.498-0.609,2.744c1.032,6.28,4.239,10.391,7.925,14.021c2.037,1.062,6.572,1.715,6.572,1.816    c2.286,0,18.037-3.93,24.211-5.627c5.604-2.217,13.295-2.352,16.915-6.553c0.291-1.918-0.396-2.856-0.608-4.271    C77.546,58.83,81.048,37.899,80.357,15.336z M73.652,26.461c-10.178,0.49-20.481,0.853-30.783,1.219    c-3.688-3.095-0.276-11.92-0.663-17.324c1.003-0.036,29.879,0.162,30.517,0.542c0.375,4.502,1.604,9.859,2.301,14.039    C74.805,25.682,73.833,25.676,73.652,26.461z"/>
	</g>
	<g id="Ebene_2_2_" display="none">
		<path display="inline" d="M83.814,70.332c-7.621,7.623-23.737-0.352-26.164-0.533c-3.748-0.279-3.928,2.758-3.928,2.758    c1.58,12.822,3.235,15.229,14.93,20.479c2.8,1.123,4.054,0.87,4.054,0.87s-0.738,2.86-1.931,2.86    C63.654,93.678,50,93.939,50,93.939s-13.656-0.264-20.776,2.826c-1.192,0-1.931-2.861-1.931-2.861s1.254,0.252,4.055-0.871    c11.693-5.248,13.349-7.654,14.929-20.477c0,0-0.181-3.037-3.928-2.76c-2.425,0.184-18.542,8.156-26.165,0.533    c-6.921-6.92-4.729-19.814,10.448-39.148C35.744,19.577,38.151,17.171,50,3.235c11.848,13.936,14.256,16.342,23.368,27.949    C88.545,50.516,90.736,63.412,83.814,70.332z"/>
	</g>
	<g id="Ebene_3_2_" display="none">
		<path display="inline" fill="#000000" d="M49.999,97.355C35.475,79.876,25.814,69.529,12.814,50    c13-19.532,22.661-29.876,37.185-47.356C64.598,20.21,74.146,30.409,87.186,50C74.186,69.529,64.525,79.876,49.999,97.355z"/>
	</g>
	<g id="Ebene_4_2_" display="none">
		<path display="inline" d="M89.368,41.212c-2.55-3.767-7.507-5.751-13.894-5.751c-5.742,0-11.021,4.415-17.051,12.741    c-1.396,1.839-3.252,2.731-4.73,3.164c0-1.453,0-2.793,0-3.943c0,0-0.01-4.474,3.572-7.196    c8.326-6.029,12.741-11.307,12.741-17.049c0-6.388-1.981-11.343-5.751-13.892C61.38,7.34,55.346,4.749,49.98,5.315    C44.615,4.749,38.582,7.34,35.705,9.286c-3.77,2.548-5.751,7.504-5.751,13.892c0,5.743,4.413,11.021,12.739,17.049    c3.583,2.722,3.573,7.196,3.573,7.196c0,1.165,0,2.528,0,4.005c-1.472-0.438-3.311-1.33-4.695-3.153    c-6.027-8.327-11.307-12.741-17.05-12.741c-6.387,0-11.343,1.984-13.89,5.751c-1.948,2.878-4.537,8.912-3.971,14.277    c-0.566,5.362,2.022,11.397,3.971,14.274c2.547,3.769,7.503,5.751,13.89,5.751c5.743,0,11.022-4.413,17.05-12.74    c1.385-1.822,3.224-2.715,4.695-3.15c0,2.162,0,7.938,0,10.933c-1.578,12.757-3.25,15.166-14.92,20.404    c-2.8,1.122-4.055,0.87-4.055,0.87s0.74,2.861,1.931,2.861c7.121-3.091,20.775-2.826,20.775-2.826s13.657-0.265,20.776,2.826    c1.191,0,1.932-2.861,1.932-2.861s-1.253,0.252-4.055-0.87c-11.692-5.248-13.349-7.656-14.93-20.479h-0.027    c0-3.029,0-8.768,0-10.939c1.479,0.432,3.336,1.322,4.729,3.16c6.029,8.328,11.308,12.742,17.052,12.742    c6.387,0,11.344-1.982,13.893-5.75c1.945-2.877,4.535-8.914,3.971-14.276C93.904,50.124,91.312,44.089,89.368,41.212z"/>
	</g>
	<g id="Ebene_5_2_" display="none">
		<path display="inline" d="M50.03,91.329c0-0.858,39.166-31.886,38.658-60.842C87.461,2.568,55.33,1.723,50,26.354    C44.671,1.723,12.54,2.568,11.312,30.487C10.805,59.443,50.03,90.475,50.03,91.329z"/>
	</g>
</g>
<g id="Ebene_2_3_" display="none">
	<path display="inline" d="M81.044,31.004L53.258,20.871c-1.033-0.377-2.396-0.565-3.758-0.565c-1.362,0-2.725,0.188-3.758,0.565   L17.956,31.004c-2.067,0.754-3.758,3.17-3.758,5.371v32c0,2.2,1.592,4.84,3.538,5.866l28.227,14.893   c0.973,0.515,2.255,0.771,3.538,0.771s2.565-0.256,3.538-0.771l28.227-14.893c1.945-1.026,3.537-3.666,3.537-5.866v-32   C84.803,34.175,83.109,31.758,81.044,31.004z M83.803,68.375c0,1.842-1.377,4.123-3.006,4.98L52.57,88.249   c-0.787,0.416-1.907,0.653-3.07,0.653c-1.164,0-2.283-0.237-3.071-0.653L18.203,73.355c-1.628-0.857-3.004-3.14-3.004-4.98v-32   c0-1.789,1.42-3.818,3.101-4.431L46.085,21.81c0.879-0.321,2.125-0.505,3.415-0.505c1.291,0,2.536,0.184,3.415,0.505l27.786,10.134   c1.681,0.613,3.102,2.643,3.102,4.431V68.375z M27.748,50.202c0.124,1.953-1.373,2.815-3.342,1.928   c-1.969-0.887-3.666-3.191-3.79-5.144c-0.124-1.954,1.373-2.816,3.342-1.928C25.927,45.946,27.624,48.249,27.748,50.202z    M44.218,75.846c0.124,1.953-1.372,2.816-3.342,1.928c-1.97-0.888-3.667-3.19-3.791-5.145c-0.124-1.953,1.373-2.814,3.343-1.928   C42.397,71.589,44.094,73.895,44.218,75.846z M61.111,53.152c-0.174,1.949-1.928,4.213-3.918,5.05   c-1.989,0.84-3.465-0.06-3.291-2.011c0.173-1.948,1.923-4.209,3.914-5.049C59.809,50.304,61.283,51.205,61.111,53.152z    M79.93,64.641c-0.171,1.947-1.925,4.207-3.914,5.045c-1.992,0.842-3.467-0.058-3.295-2.008c0.174-1.949,1.926-4.21,3.918-5.051   C78.628,61.789,80.104,62.688,79.93,64.641z M70.521,58.896c-0.174,1.951-1.926,4.209-3.918,5.049   c-1.99,0.84-3.465-0.061-3.293-2.012c0.172-1.945,1.926-4.207,3.916-5.047C69.218,56.046,70.693,56.945,70.521,58.896z    M52.637,32.208c1.405,1.364,0.877,3.008-1.178,3.674c-2.057,0.666-4.859,0.102-6.265-1.262c-1.404-1.363-0.875-3.008,1.18-3.673   C48.43,30.281,51.234,30.847,52.637,32.208z"/>
</g>
<g id="Ebene_3_3_" display="none">
	<g display="inline">
		<path d="M53.258,20.871c-2.066-0.754-5.449-0.754-7.516,0L17.956,31.004c-2.067,0.754-3.758,3.17-3.758,5.371v32    c0,2.2,1.592,4.84,3.538,5.866l28.227,14.893c1.946,1.026,5.129,1.026,7.076,0l28.227-14.893c1.945-1.026,3.537-3.666,3.537-5.866    v-32c0-2.2-1.691-4.617-3.758-5.371L53.258,20.871z M24.405,52.13c-1.97-0.888-3.666-3.191-3.79-5.144    c-0.124-1.954,1.373-2.816,3.342-1.928c1.97,0.889,3.667,3.191,3.791,5.145C27.871,52.155,26.375,53.018,24.405,52.13z     M40.876,77.773c-1.97-0.889-3.667-3.191-3.791-5.146c-0.124-1.953,1.373-2.813,3.343-1.928c1.97,0.888,3.666,3.192,3.79,5.145    C44.342,77.799,42.846,78.662,40.876,77.773z M51.459,35.883c-2.057,0.666-4.859,0.102-6.265-1.262    c-1.404-1.363-0.875-3.008,1.18-3.673c2.056-0.666,4.86-0.1,6.263,1.261C54.042,33.572,53.514,35.217,51.459,35.883z     M57.193,58.202c-1.989,0.84-3.465-0.06-3.291-2.011c0.173-1.948,1.923-4.209,3.914-5.049c1.99-0.838,3.467,0.062,3.295,2.01    C60.938,55.102,59.186,57.365,57.193,58.202z M66.604,63.943c-1.99,0.841-3.465-0.06-3.293-2.01    c0.172-1.947,1.926-4.209,3.916-5.048c1.99-0.841,3.467,0.06,3.295,2.009C70.35,60.848,68.596,63.104,66.604,63.943z     M76.016,69.686c-1.992,0.842-3.467-0.058-3.295-2.008c0.174-1.949,1.926-4.21,3.918-5.051c1.989-0.838,3.465,0.061,3.291,2.014    C79.759,66.588,78.005,68.848,76.016,69.686z"/>
	</g>
</g>
<g id="Ebene_4_3_">
</g>
<path d="M50,24.068h-7.408v-7.409H50h7.408v7.409H50z M57.408,46.295v7.409h7.41v-7.409v-7.409h-7.41V46.295z M72.227,61.113h-7.408  v7.408h7.408V61.113z M87.045,24.068v7.409v7.409v7.409h7.41v-7.409v-7.409v-7.409H87.045z M79.637,16.659v7.409h7.408v-7.409  H79.637z M79.637,53.704v7.409v7.408v7.41v7.406h-7.41h-7.408H57.41H50h-7.41h-7.408h-7.408h-7.41v-7.406v-7.41v-7.408v-7.409  v-7.407h-7.405v7.409v7.409v7.406v7.41v7.408v7.407h7.405h7.41h7.408h7.41H50h7.408h7.41h7.408h7.41h7.405V83.34v-7.408v-7.41  v-7.406v-7.409v-7.409h-7.405V53.704z M72.227,9.25h-7.408H57.41v7.409h7.408h7.408h7.41V9.25H72.227z M35.182,46.295v7.409h7.41  v-7.409v-7.409h-7.41V46.295z M42.592,75.932H50h7.408h7.41v-7.41h-7.41H50h-7.408h-7.41v7.41H42.592z M27.773,61.113v7.408h7.408  v-7.408H27.773z M5.545,31.477v7.409v7.409h7.41v-7.409v-7.409v-7.409h-7.41V31.477z M20.363,16.659h-7.408v7.409h7.408V16.659z   M35.182,16.659h7.408V9.25h-7.408h-7.408h-7.41v7.409h7.41H35.182z"/>
</svg>