<svg xmlns="http://www.w3.org/2000/svg" xmlns:xlink="http://www.w3.org/1999/xlink" version="1.1" id="Your_Icon" x="0px" y="0px" width="100px" height="100px" viewBox="0 0 100 100" enable-background="new 0 0 100 100" xml:space="preserve">
	<g>
<path d="M80.927,20.695C72.617,7.842,55.083,5.183,49.552,5.03h-0.015l0,0h-0.016C43.99,5.182,26.457,7.842,18.146,20.695  c-4.711,7.294-6.671,16.38-6.033,24.933c0.244,3.176,0.562,6.413,1.292,9.512c0.593,2.522,1.687,4.817,1.687,7.445  c-0.015,4.238-0.805,9.07,1.14,13.021c1.444,2.993,5.044,4.954,8.236,5.591c2.232,0.44,4.983-0.212,7.095,0.776  c1.079,0.515,1.595,1.366,1.944,2.491c0.457,1.443-0.105,3.874,0.562,5.09c0.352,0.641,0.903,1.146,1.554,1.562  c0,0.002,0,0.002,0,0.002l0.006,0.003c0.598,0.382,1.278,0.687,1.967,0.949l0.034,0.017c0.002,0,0.003-0.001,0.004-0.001  c0.03-0.003,0.055-0.026,0.055-0.057v-0.086c0,0,0.001,0,0.002,0v-0.018c0-0.965,0.783-1.747,1.748-1.747  c0.962,0,1.743,0.779,1.746,1.741v1.315l0,0c0.001,0.031,0.025,0.066,0.055,0.077c0,0,0.375,0.131,0.965,0.311  c0.134,0.041,0.268,0.08,0.402,0.119c0.117,0.035,0.239,0.07,0.364,0.105c0.177,0.049,0.354,0.098,0.532,0.145  c0.063,0.016,0.126,0.032,0.192,0.05c0.213,0.055,0.435,0.11,0.662,0.162c0.005,0.002,0.011,0.002,0.017,0.003  c0.206,0.049,0.412,0.091,0.62,0.135c0.007,0.002,0.015,0.007,0.022,0.008c0.523,0.134,1.284,0.244,1.868,0.315  c0.061,0.009,0.118,0.017,0.175,0.022c0.392,0.047,0.671,0.074,0.671,0.074s0-0.002,0.001-0.002  c0.031,0.002,0.055-0.021,0.053-0.051c0,0-0.005-0.327,0.005-0.467v-0.103c0-0.669,0.374-1.247,0.922-1.542  c0.246-0.132,0.527-0.207,0.825-0.207l0,0c0.298,0,0.578,0.075,0.824,0.207c0.55,0.295,0.922,0.873,0.922,1.542v0.103  c0.011,0.14,0.006,0.467,0.006,0.467c-0.003,0.03,0.021,0.053,0.053,0.051c0,0,0,0.002,0.002,0.002c0,0,0.277-0.027,0.67-0.074  c0.056-0.006,0.114-0.014,0.176-0.022c0.582-0.071,1.344-0.182,1.866-0.315c0.01-0.001,0.016-0.006,0.024-0.008  c0.206-0.044,0.413-0.086,0.618-0.135c0.007-0.001,0.011-0.001,0.018-0.003c0.226-0.052,0.447-0.107,0.662-0.162  c0.064-0.018,0.129-0.034,0.192-0.05c0.176-0.047,0.354-0.096,0.53-0.145c0.127-0.035,0.248-0.07,0.364-0.104  c0.135-0.038,0.27-0.08,0.403-0.121c0.591-0.18,0.964-0.311,0.964-0.311c0.031-0.011,0.054-0.044,0.056-0.077h0.001v-1.315  c0.004-0.962,0.783-1.741,1.747-1.741c0.966,0,1.746,0.782,1.746,1.747v0.018h0.002v0.086c0,0.03,0.024,0.054,0.055,0.057  c0,0.001,0.003,0.001,0.004,0.001l0.035-0.015c0.689-0.265,1.369-0.569,1.966-0.951l0.007-0.003c0,0,0,0,0.001-0.002  c0.65-0.416,1.2-0.922,1.554-1.562c0.667-1.216,0.104-3.646,0.562-5.09c0.35-1.125,0.865-1.975,1.944-2.491  c2.112-0.987,4.862-0.336,7.096-0.775c3.191-0.638,6.792-2.599,8.235-5.592c1.944-3.95,1.154-8.782,1.141-13.021  c0-2.628,1.093-4.923,1.686-7.445c0.729-3.1,1.048-6.336,1.291-9.512C87.598,37.075,85.637,27.989,80.927,20.695z M41.726,67.948  c-1.352,1.004-2.947,1.702-4.498,2.339c-1.656,0.7-3.327,1.415-5.089,1.778c-0.973,0.214-2.021,0.365-3.008,0.38  c-3.055,0.077-5.684-1.246-6.975-4.086c-0.835-1.839-1.23-3.874-1.429-5.881c-0.136-1.443-0.288-2.888-0.166-4.27  c-0.015,0.016-0.045,0.03-0.061,0.046c0.061-1.353,0.501-2.4,1.169-3.357c0.016-0.014,0.016-0.031,0.031-0.046  c0.016-0.03,0.046-0.075,0.077-0.106c0.121-0.167,0.258-0.35,0.394-0.532c0.198-0.258,0.426-0.486,0.654-0.713  c0.076-0.077,0.151-0.168,0.228-0.229c1.292-1.032,2.644-0.653,3.829,0.03c0.395,0.228,0.791,0.502,1.14,0.76  c2.021,1.487,3.951,3.146,6.26,4.193c1.124,0.517,2.294,0.957,3.509,1.171c1.277,0.227,2.613,0.09,3.859,0.5  c1.307,0.411,2.568,1.945,2.705,3.282C44.538,65.138,43.2,66.854,41.726,67.948z M51.968,76.881  c-0.805,0.546-1.595-0.304-2.431-0.336l0,0c-0.836,0.03-1.626,0.882-2.431,0.335c-0.913-0.622-0.563-2.143-0.366-3.008  c0.168-0.729,0.411-1.443,0.624-2.158c0.228-0.82,0.562-1.642,0.928-2.431c0.136-0.319,0.272-0.639,0.501-0.911  c0.136-0.154,0.485-0.473,0.714-0.486c0.015,0,0.015,0,0.031,0l0,0c0.015,0,0.015,0,0.03,0c0.229,0.014,0.578,0.332,0.714,0.486  c0.228,0.272,0.366,0.592,0.502,0.911c0.363,0.789,0.699,1.61,0.927,2.431c0.212,0.715,0.456,1.429,0.622,2.158  C52.531,74.737,52.879,76.258,51.968,76.881z M78.345,62.479c-0.197,2.007-0.592,4.042-1.429,5.881  c-1.291,2.843-3.92,4.163-6.975,4.086c-0.986-0.015-2.035-0.166-3.008-0.38c-1.763-0.363-3.433-1.078-5.09-1.776  c-1.551-0.639-3.145-1.337-4.497-2.341c-1.474-1.094-2.811-2.811-2.629-4.74c0.138-1.337,1.398-2.871,2.705-3.281  c1.245-0.411,2.583-0.274,3.859-0.501c1.215-0.214,2.385-0.654,3.509-1.171c2.31-1.048,4.239-2.706,6.26-4.193  c0.351-0.258,0.745-0.531,1.14-0.76c1.186-0.684,2.538-1.062,3.829-0.03c0.076,0.061,0.151,0.152,0.229,0.229  c0.228,0.227,0.455,0.455,0.653,0.713c0.137,0.183,0.273,0.365,0.394,0.532c0.031,0.031,0.062,0.076,0.077,0.106  c0.014,0.015,0.014,0.032,0.03,0.046c0.669,0.957,1.109,2.005,1.171,3.357c-0.017-0.016-0.048-0.03-0.062-0.046  C78.633,59.591,78.481,61.035,78.345,62.479z"/>
</g>
</svg>