<svg xmlns="http://www.w3.org/2000/svg" xmlns:xlink="http://www.w3.org/1999/xlink" version="1.1" id="Your_Icon" x="0px" y="0px" width="100px" height="100px" viewBox="0 0 100 100" enable-background="new 0 0 100 100" xml:space="preserve">
<g>
	<g>
		<g>
			<g>
			</g>
		</g>
		<g>
		</g>
	</g>

<polygon points="50,26.909 51.947,32.387 57.197,29.891 54.703,35.141 60.18,37.089 54.703,39.037 57.197,44.287 51.947,41.791   50,47.268 48.052,41.791 42.802,44.287 45.298,39.037 39.82,37.089 45.298,35.141 42.802,29.891 48.052,32.387 "/>
<g>
	<path d="M45.769,49.771c-2.987-2.074-5.145-4.658-6.694-7.214c-9.364,0.69-19.425,1.949-24.154,2.576v4.638h28.013H45.769z"/>
	<path d="M54.14,49.771h2.927h28.013v-4.633c-4.768-0.626-14.94-1.891-24.244-2.583C59.286,45.11,57.129,47.696,54.14,49.771z"/>
	<path d="M50.692,51.747h-1.475h-6.283h-27.89c0.157,0.641,0.462,1.239,0.902,1.742c3.292,3.771,7.44,6.442,11.696,8.341h-0.002   c1.865,0.845,22.549,9.746,44.769-0.022c4.238-1.897,8.366-4.562,11.647-8.318c0.438-0.503,0.744-1.102,0.9-1.742h-27.89H50.692z"/>
	<path d="M94.582,29.412c-0.608-1.244-1.795-2.102-3.166-2.288c-0.232-0.033-26.149-6.149-38.983-14.939   c-0.014-0.01-0.029-0.019-0.043-0.028c-0.013-0.009-0.024-0.017-0.037-0.025c-0.026-0.019-0.055-0.031-0.083-0.049   c-0.11-0.072-0.218-0.146-0.337-0.208c-0.019-0.01-0.038-0.016-0.057-0.025c-0.045-0.023-0.093-0.04-0.139-0.061   c-0.125-0.059-0.25-0.115-0.379-0.16c-0.056-0.019-0.11-0.031-0.166-0.046c-0.123-0.037-0.246-0.074-0.371-0.1   c-0.068-0.014-0.137-0.019-0.205-0.029c-0.114-0.017-0.228-0.037-0.342-0.044c-0.087-0.005-0.172-0.001-0.258-0.001   c-0.097,0-0.195-0.004-0.292,0.002c-0.105,0.007-0.208,0.025-0.312,0.04c-0.078,0.011-0.157,0.018-0.235,0.034   c-0.119,0.023-0.235,0.059-0.352,0.095c-0.061,0.018-0.124,0.03-0.184,0.052c-0.127,0.044-0.253,0.101-0.376,0.158   c-0.046,0.022-0.095,0.039-0.141,0.062c-0.019,0.009-0.038,0.016-0.057,0.025c-0.12,0.062-0.231,0.137-0.342,0.211   c-0.024,0.017-0.053,0.028-0.076,0.045c-0.011,0.008-0.023,0.015-0.034,0.023c-0.016,0.011-0.032,0.021-0.048,0.032   C34.761,20.955,8.814,27.091,8.584,27.124c-1.371,0.187-2.558,1.044-3.167,2.288c-0.607,1.243-0.557,2.707,0.136,3.904l8.624,9.922   c4.377-0.584,14.353-1.85,23.845-2.583c-2.24-4.451-2.746-8.364-2.782-8.665c-0.139-1.171,0.541-2.286,1.646-2.696   c3.255-1.209,9.585-4.815,11.352-5.835c0.464-0.401,1.054-0.618,1.659-0.622c0.019,0,0.038,0,0.057,0c0.02,0,0.039,0,0.059,0   c0.604,0.004,1.193,0.221,1.658,0.622c1.766,1.02,8.096,4.626,11.352,5.835c1.105,0.41,1.785,1.525,1.646,2.696   c-0.035,0.3-0.541,4.213-2.781,8.663c9.438,0.735,19.522,2.005,23.934,2.588l8.625-9.925C95.14,32.119,95.19,30.655,94.582,29.412z   "/>
</g>
<path d="M81.318,69.902c-0.216-0.232-0.52-0.366-0.838-0.369l-27.47-0.249c-0.052-0.007-0.101-0.016-0.152-0.016h-8.258  c-0.099,0-0.193,0.017-0.286,0.04L19.52,69.533c-0.318,0.003-0.622,0.137-0.838,0.369c-0.217,0.233-0.329,0.545-0.31,0.862  c0.011,0.175,1.234,17.422,14.965,17.812c0.145,0.003,0.303,0.032,0.433,0.007c8.945,0,13.102-8.012,14.879-13.343h2.701  c1.777,5.331,5.935,13.343,14.881,13.343c0.142,0,0.287-0.004,0.431-0.007c13.732-0.391,14.955-17.638,14.966-17.812  C81.648,70.447,81.535,70.136,81.318,69.902z"/>
</g>
</svg>