<svg xmlns="http://www.w3.org/2000/svg" xmlns:xlink="http://www.w3.org/1999/xlink" version="1.1" id="Layer_1" x="0px" y="0px" width="100px" height="100px" viewBox="0 0 100 100" enable-background="new 0 0 100 100" xml:space="preserve">
<g id="Layer_1_1_" display="none">
	<path display="inline" d="M-115.83,237.461c-0.066,0-0.118-0.002-0.154-0.004c-0.034,0.002-0.086,0.004-0.153,0.004   c-1.077,0-4.963-0.344-9.763-4.754c-6.142-5.643-11.192-15.482-15.007-29.24c-2.995-10.798-2.148-19.717,2.513-26.512   c7.362-10.732,21.445-12.227,22.041-12.285l0.66-0.004c0.675,0.062,14.758,1.557,22.119,12.289   c4.662,6.794,5.509,15.714,2.513,26.512c-3.814,13.758-8.863,23.594-15.006,29.238   C-110.866,237.117-114.753,237.461-115.83,237.461z M-115.984,235.834l0.154,0.006c1.444,0,14.365-0.92,23.207-32.807   c2.859-10.309,2.091-18.771-2.281-25.152c-6.923-10.107-20.73-11.584-20.868-11.598l-0.502,0.002   c-0.058,0.012-13.863,1.488-20.791,11.596c-4.37,6.381-5.139,14.844-2.28,25.152c8.842,31.887,21.764,32.807,23.208,32.807   L-115.984,235.834z"/>
	<g display="inline">
		<path d="M-110.19,200.684c0,0,0.067-0.106,0.163-0.285c0.102-0.162,0.222-0.41,0.384-0.657c0.083-0.119,0.146-0.281,0.237-0.414    c0.08-0.142,0.186-0.271,0.263-0.429c0.083-0.151,0.174-0.303,0.275-0.442c0.108-0.138,0.177-0.308,0.271-0.457    c0.097-0.149,0.191-0.299,0.303-0.44c0.083-0.154,0.17-0.308,0.265-0.453c0.093-0.146,0.195-0.285,0.298-0.418    c0.11-0.133,0.174-0.275,0.265-0.398c0.325-0.506,0.708-0.867,0.708-0.867s0.205,0.436,0.263,1.125    c0.01,0.172,0.052,0.367,0.017,0.555c-0.029,0.189-0.065,0.396-0.117,0.603c-0.054,0.205-0.106,0.424-0.188,0.635    c-0.099,0.199-0.217,0.397-0.333,0.597c-0.131,0.188-0.233,0.397-0.403,0.553c-0.158,0.166-0.32,0.32-0.482,0.461    c-0.152,0.148-0.348,0.246-0.518,0.346c-0.174,0.096-0.333,0.186-0.505,0.238c-0.329,0.115-0.62,0.17-0.836,0.174    C-110.068,200.713-110.19,200.684-110.19,200.684z"/>
	</g>
	<g display="inline">
		<path d="M-122.025,200.686c0,0-0.12,0.029-0.327,0.019c-0.217-0.004-0.508-0.06-0.836-0.175c-0.171-0.053-0.332-0.141-0.506-0.235    c-0.17-0.103-0.365-0.198-0.518-0.349c-0.162-0.141-0.324-0.295-0.481-0.459c-0.171-0.155-0.273-0.362-0.404-0.555    c-0.115-0.197-0.233-0.395-0.333-0.596c-0.081-0.211-0.134-0.428-0.188-0.635c-0.052-0.207-0.088-0.412-0.117-0.602    c-0.035-0.188,0.007-0.384,0.017-0.556c0.058-0.688,0.263-1.125,0.263-1.125s0.383,0.361,0.709,0.867    c0.092,0.123,0.154,0.267,0.264,0.397c0.103,0.133,0.206,0.271,0.298,0.418c0.096,0.146,0.182,0.299,0.266,0.453    c0.11,0.144,0.206,0.293,0.302,0.441c0.095,0.15,0.163,0.32,0.271,0.457c0.101,0.143,0.192,0.291,0.274,0.443    c0.077,0.158,0.184,0.287,0.265,0.428c0.09,0.133,0.152,0.295,0.236,0.414c0.162,0.248,0.283,0.498,0.383,0.658    C-122.092,200.576-122.025,200.686-122.025,200.686z"/>
	</g>
	<path display="inline" d="M-108.016,179.191c-0.146-0.057-3.64-1.349-7.969-0.928c-4.328-0.421-7.821,0.871-7.969,0.928   c-3.157,1.15-8.754,5.068-7.265,11.623c1.486,6.537,3.595,10.315,4.495,11.928c0.092,0.164,0.171,0.305,0.236,0.424   c0.116,1.66,0.886,9.607,5.033,11.736c0.05,0.024,0.101,0.043,0.15,0.065c0.193,2.318,2.49,4.164,5.318,4.164   c2.828,0,5.126-1.846,5.319-4.164c0.05-0.022,0.101-0.041,0.15-0.065c4.147-2.129,4.917-10.076,5.033-11.736   c0.064-0.119,0.144-0.26,0.235-0.424c0.899-1.611,3.01-5.391,4.495-11.928C-99.261,184.261-104.858,180.343-108.016,179.191z    M-115.984,217.576c-1.286,0-2.404-0.881-3.011-2.178c0.949-0.06,1.953-0.369,3.011-0.955c1.058,0.586,2.062,0.896,3.012,0.955   C-113.579,216.695-114.697,217.576-115.984,217.576z M-115.984,209.445l-1.657-2.074h3.317L-115.984,209.445z M-102.656,190.381   c-1.422,6.264-3.435,9.869-4.295,11.408c-0.157,0.281-0.282,0.502-0.365,0.672l-0.09,0.182l-0.011,0.199   c-0.138,2.375-1.119,8.852-3.99,10.324c-1.111,0.566-2.452,0.338-4.104-0.711l-0.413-0.264v-0.021l5.238-6.549l-10.596-0.004   l5.236,6.553v0.021l-0.414,0.264c-1.65,1.049-2.99,1.277-4.104,0.711c-2.869-1.473-3.851-7.949-3.988-10.324l-0.011-0.199   l-0.091-0.182c-0.083-0.17-0.207-0.391-0.365-0.672c-0.859-1.539-2.872-5.145-4.295-11.408c-1.479-6.506,5.732-9.246,6.041-9.359   c0.041-0.016,3.295-1.215,7.21-0.805l-4.283,3.92c1.305-0.137,3.03-0.531,4.752-0.994c3.441-0.926,6.869-2.131,6.896-2.121   c0.075,0.027-2.871,3.535-2.871,3.535s4.074-0.412,5.568-2.057C-104.001,183.939-101.77,186.484-102.656,190.381z"/>
	<path display="inline" d="M-107.196,160.229h-17.577v-10.304l6.189,3.573l2.816-4.725l2.577,4.61l5.994-3.46L-107.196,160.229   L-107.196,160.229z M-123.022,158.479h14.076v-5.521l-4.906,2.832l-1.965-3.518l-2.148,3.604l-5.057-2.919V158.479z"/>
	<path display="inline" d="M-142.932-59.292c0,0-4.75-2.75-1.375-9.25l1.375,3.25l1.625-8   C-141.307-73.292-136.682-63.542-142.932-59.292z"/>
	<path display="inline" d="M-124.807-15.292c-0.044-3.99-1.616-6.418-3.623-7.897c0.37-0.427,0.685-0.916,0.925-1.46   c0.077-0.174,0.143-0.349,0.201-0.526l3.187,1.406l-2.951-2.434c0.015-0.106,0.025-0.213,0.035-0.319l4.637-1.56l-4.943-0.828   c-0.021-0.06-0.037-0.122-0.061-0.181l3.314-3.758l-4.641,1.735c-0.06-0.06-0.121-0.12-0.185-0.178l0.976-4.84l-3.003,3.641   c-0.161-0.055-0.322-0.101-0.485-0.142l-1.484-4.418l-0.723,4.305c-0.294,0.042-0.585,0.104-0.868,0.189l-3.176-2.801l1.383,3.704   c-0.348,0.258-0.669,0.556-0.956,0.893l-3.711-0.75l0.804,0.662l2.269,1.002c-0.091,0.162-0.176,0.329-0.253,0.503   c-0.614,1.39-0.633,2.888-0.178,4.221c-1.015,0.194-1.673-0.307-2.614-4.919c-1.25-6.125-2.25-27.75-2.25-27.75   c-5.125,10.875-3.375,17.125-3.375,17.125c-1.25,7.875,0.875,18.75-0.5,21.125c-4,10-3,36.875-3,36.875h24.375l-0.625-12.875   c4.125-0.375,3.125-3,3.125-3S-124.682-4.042-124.807-15.292z"/>
	<g id="A43QRw_1_" display="inline">
		
			</g>
	<path display="inline" d="M-118.498,67.928l1.772,18.152l2.786,9.681c0,0-3.544,4.841-5.824,7.261l-5.571-9.276   c0,0-3.036-11.093,2.025-25.815C-118.245,53.205-118.498,67.928-118.498,67.928z"/>
	<path display="inline" d="M-122.727,74.514l5.841-7.812l-1.372-11.8l-0.91-4.932l-0.349-5.448   C-119.517,44.522-128.858,57.986-122.727,74.514z"/>
	<path display="inline" d="M-118.298,95.83c0,0,3.759-17.977,9.152-17.777c5.393,0.2,6.192-0.09,7.19,4.749   c0.999,4.839,0.6,8.634,0.6,8.634l-2.797,4.396L-118.298,95.83L-118.298,95.83z"/>
	<path display="inline" d="M-106.35,92.436c0,0,9.589,2.597,10.188,5.991c0.6,3.396,5.594,12.784,5.594,12.784   s0.998,3.995-4.595,5.992"/>
	<path display="inline" d="M-122.729,93.833c0,0-8.58,11.386-2.083,15.381c0,0-1.427,16.181-1.427,18.177h32.474l-1.798-17.776   l-10.787-15.78h-14.439L-122.729,93.833L-122.729,93.833z"/>
	<path display="inline" d="M-119.609,42.108l3.457-1.841c0,0,0.459-3.939-1.148-5.965l0.543-3.307l-2.316,3.931l-0.455-7.868   c0,0-4.707,4.768-4.554,6.46c0.152,1.691-0.17,4.492,0.524,5.603C-122.866,40.232-119.609,42.108-119.609,42.108z"/>
	<polygon display="inline" points="-102.554,86.939 -94.164,85.443 -104.152,84.443  "/>
	<polygon display="inline" points="-103.353,82.203 -95.962,77.652 -104.152,79.93  "/>
	<polygon display="inline" points="-106.02,78.852 -106.28,70.176 -108.389,78.41  "/>
	<polygon display="inline" points="-110.479,79.484 -117.4,74.251 -112.306,81.055  "/>
	<polygon display="inline" points="-114.052,83.006 -122.544,84.786 -114.069,85.414  "/>
</g>
<g id="Layer_2" display="none">
	<polygon display="inline" fill="#000000" points="-67.5,-64.083 -68.333,-65.667 -68.333,-67.417 -67.5,-68.25 -67.917,-68.917    -67,-68.417 -66.416,-68.917 -66.416,-69.5 -65.333,-69.5 -65.333,-70.5 -64.5,-69.5 -64.5,-68.583 -63.833,-68.5 -63.833,-69.25    -62.833,-69.917 -62.833,-68.833 -62.833,-68.083 -64,-66.667 -63.916,-65.583 -64.5,-64.833  "/>
	<polygon display="inline" fill="#000000" points="-112.083,-63.166 -112.917,-64.75 -112.917,-66.5 -112.083,-67.333 -112.5,-68    -111.583,-67.5 -111,-68 -111,-68.583 -109.917,-68.583 -109.917,-69.583 -109.083,-68.583 -109.083,-67.666 -108.417,-67.583    -108.417,-68.333 -107.417,-69 -107.417,-67.916 -107.417,-67.166 -108.583,-65.75 -108.5,-64.666 -109.083,-63.916  "/>
	<path display="inline" d="M-73.75-12.248l-0.334,1.333l-0.583-0.25l-1.583,3.083l-0.334-0.833l-2.666-1.583l-2.084-6.084l-2-2.5   l-2,0.084l0.75-1.084l-1-0.418c-0.5-0.667-1.5-3.666-1.5-3.666l0.5-1.084l-0.916-4l0.416-0.666c0,0,0,0-0.416-0.334   c0-0.461,0.121-1.171,0.034-2.068l7.236-1.16l-7.637-0.512c-0.054-0.137-0.114-0.277-0.181-0.42l6.005-3.381l-6.862,1.969   c-0.085-0.114-0.168-0.228-0.263-0.344c-0.259-0.316-0.544-0.575-0.845-0.795l2.97-4.83l-4.193,4.193   c-0.687-0.237-1.405-0.323-2.094-0.308l-2.088-5.823l0.803,5.962c-0.857,0.16-1.575,0.427-1.988,0.65l-5.939-3.3l4.852,4.2   c-0.329,0.34-0.581,0.681-0.767,1.021l-5.511,0.537l-0.199-2.593l-2.5-9l-0.583-3.416v-2L-107.667-53l-1.167-2l-0.416-0.416   c0,0-0.667-0.167-0.917-0.834s-0.75,0.583-0.75,0.583l-1.917,0.084l-0.666,0.666v0.584l0.5,0.166l-0.5,0.75l0.75,0.584   l-0.334,0.583l0.417,1.25l0.5,1l0.833,0.5l1,10l1,3.75l0.834,2l0.5,3.5l-2.417,5.583l-0.083,2.333l0.916,2.416h1l1,0.584   l-0.583,1.834l0.75,0.833l1,1.25l-0.167,2.333l0.417,0.917l-0.167,2.5l1,0.916l0.834,2.167l-1.834,4.336l-1.333,5.334   c0,0,0.417,3,2.5,3.75l-0.75,4.833L-106,16.335l0.666,0.998h28l-0.833-4.165c0,0,1.083,0.75,1.5,0.5s1.5-1.583,1.5-1.583   l1.583-0.667c0,0,2.084-3.832,1.584-8.416l1.416-1.25c0,0,2.167-5.5,2.167-5.25s-1-1.417-1-1.417l1-2.417v-0.583l0.917-0.833   L-73.75-12.248z M-103.947-34.392l5.036,0.614c-0.035,0.334-0.025,0.651,0.016,0.946l-3.472,0.598L-102.75-33l-0.5-0.166   L-103.917-34L-103.947-34.392z M-99.333-26.166l-1.416-1.55l-0.334-0.535v-0.953v-0.88l-0.75-1.083l-0.149-0.299l3.543,0.079   c0.148,0.294,0.273,0.471,0.273,0.471l-0.417,2.333h0.75L-99.333-26.166z"/>
	<path display="inline" d="M-29.166-13.165l-0.334,1.333l-0.583-0.25l-1.583,3.083L-32-9.832l-2.666-1.583l-2.084-6.084l-2-2.5   l-2,0.084l0.75-1.084l-1-0.418c-0.5-0.667-1.5-3.666-1.5-3.666l0.5-1.084l-0.916-4l0.416-0.666c0,0,0,0-0.416-0.334   c0-0.461,0.121-1.171,0.034-2.068l7.236-1.16l-7.637-0.512c-0.054-0.137-0.114-0.277-0.181-0.42l6.005-3.381l-6.862,1.969   c-0.085-0.114-0.168-0.228-0.263-0.344c-0.259-0.316-0.544-0.575-0.845-0.795l2.97-4.83l-4.193,4.193   c-0.687-0.237-1.405-0.323-2.094-0.308l-2.088-5.823l0.803,5.962c-0.857,0.16-1.575,0.427-1.988,0.65l-5.939-3.3l4.852,4.2   c-0.329,0.34-0.581,0.681-0.767,1.021l-5.511,0.537l-0.199-2.593l-2.5-9l-0.583-3.416v-2l-0.417-1.334l-1.167-2l-0.333-0.333   v-1.113l0.75-0.656l-0.375-0.562l2.188-0.75l0.562-1l-0.562-1.25c0,0-3.812-2.062-8.188,0l-0.812,1.375l0.812,1.125l0.75,0.375   l0.542,1.344l0.666,0.863l-0.666,0.666v0.584l0.5,0.166l-0.5,0.75l0.75,0.584l-0.334,0.583l0.417,1.25l0.5,1l0.024,0.015   l0.163,1.32l-0.438,0.688l0.438,0.75l0.5,1.312v0.562l0.631,0.706l0.515,5.146l1,3.75l0.834,2l0.5,3.5l-2.417,5.583l-0.083,2.333   L-65-20.835h1l1,0.584l-0.583,1.834l0.75,0.833l1,1.25L-62-14.001l0.417,0.917l-0.167,2.5l1,0.916l0.834,2.167l-1.834,4.336   l-1.333,5.334c0,0,0.417,3,2.5,3.75l-0.75,4.833l-0.083,4.667l0.666,0.998h28l-0.833-4.165c0,0,1.083,0.75,1.5,0.5   s1.5-1.583,1.5-1.583L-29,10.501c0,0,2.084-3.832,1.584-8.416L-26,0.835c0,0,2.167-5.5,2.167-5.25s-1-1.417-1-1.417l1-2.417v-0.583   l0.917-0.833L-29.166-13.165z M-58.166-33.917l-0.5-0.166l-0.667-0.834l-0.03-0.392l5.036,0.614   c-0.035,0.334-0.025,0.651,0.016,0.946l-3.472,0.598L-58.166-33.917z M-54.75-27.083l-1.416-1.55l-0.334-0.535v-0.953V-31   l-0.75-1.083l-0.149-0.299l3.543,0.079c0.148,0.294,0.273,0.471,0.273,0.471L-54-29.5h0.75L-54.75-27.083z"/>
	<polygon display="inline" points="-184.244,37.21 -185.077,35.626 -185.077,33.876 -184.244,33.043 -184.661,32.376    -183.744,32.876 -183.16,32.376 -183.16,31.793 -182.077,31.793 -182.077,30.793 -181.244,31.793 -181.244,32.71 -180.577,32.793    -180.577,32.043 -179.577,31.376 -179.577,32.46 -179.577,33.21 -180.744,34.626 -180.66,35.71 -181.244,36.46  "/>
	<path display="inline" d="M-145.91,88.128l-0.334,1.333l-0.583-0.25l-1.583,3.083l-0.334-0.833l-2.666-1.583l-1.614-6.294   l-2.25-3.375l-1.225,0.209l0.734-0.709l-2.125-1.062c-0.5-0.666-1.354-2.437-1.354-2.437l1.542-1.751l-1.958-3.333l1.083-0.417   c0,0-0.667-0.249-1.083-0.583c0-0.461,0.121-1.171,0.034-2.067l7.236-1.16l-7.637-0.513c-0.054-0.137-0.114-0.276-0.181-0.42   l6.005-3.381l-6.862,1.97c-0.085-0.115-0.168-0.229-0.263-0.345c-0.259-0.315-0.544-0.575-0.845-0.795l2.97-4.83l-4.193,4.192   c-0.687-0.236-1.405-0.322-2.094-0.307l-2.088-5.824l0.803,5.963c-0.857,0.16-1.575,0.427-1.988,0.649l-5.939-3.3l4.852,4.2   c-0.329,0.34-0.581,0.681-0.767,1.021l-5.511,0.537l-0.199-2.593l-2.5-9l-0.583-3.416v-2l-0.417-1.334l-1.167-2l-0.333-0.333   v-1.113l0.75-0.656l-0.375-0.562l2.188-0.75l0.562-1l-0.562-1.25c0,0-3.812-2.062-8.188,0l-0.812,1.375l0.812,1.125l1.875,0.437   l-0.812,0.562l0.896,1.583l-0.666,0.666v0.584l0.5,0.166l-0.5,0.75l0.75,0.584l-0.334,0.583l0.417,1.25l0.5,1l0.024,0.015   l0.163,1.32l-0.438,0.688l0.438,0.75l0.5,1.312v0.562l0.631,0.707l0.515,5.146l1,3.75l0.834,2l0.5,3.5l-2.5,7.916l0.916,2.416h1   l1,0.584l-0.833,2.229l1.688,0.062l-1.312,0.625l1.458,3.332l0.417,0.917l-0.562,2.751l1.396,0.665l0.834,2.167l-1.834,4.336   l-1.333,5.334c0,0,0.417,3,2.5,3.75l-0.75,4.833l-0.083,4.667l0.666,0.998h28l-0.833-4.165c0,0,1.083,0.75,1.5,0.5   s1.5-1.583,1.5-1.583l1.583-0.667c0,0,2.084-3.832,1.584-8.416l1.416-1.25c0,0,2.167-5.5,2.167-5.25s-1-1.417-1-1.417l1-2.417   v-0.583l0.917-0.833L-145.91,88.128z M-174.91,67.375l-0.5-0.166l-0.667-0.834l-0.03-0.393l5.036,0.615   c-0.035,0.334-0.025,0.65,0.016,0.945l-3.472,0.598L-174.91,67.375z M-171.494,74.21l-1.416-1.55l-0.334-0.535v-0.953v-0.88   l-0.75-1.083l-0.149-0.299l3.543,0.078c0.148,0.295,0.273,0.472,0.273,0.472l-0.417,2.333h0.75L-171.494,74.21z"/>
</g>
<g id="Layer_3" display="none">
</g>
<g>
	<path d="M82.357,26.993c-2.791-1.689-9.076-1.998-17.454,2.453c-2.513,1.227-9.773,5.215-12.288,3.528   c-2.514-1.689-5.026-4.451-7.819-2.608c-2.792,1.839-13.263,11.811-18.153,17.487c-1.954,2.148-3.368,3.976-7.68,5.983   c-2.532,1.182-5.444,2.608-7.819,1.689c0,0-2.093,10.123,4.329,17.182c6.423,7.058,23.877,10.279,32.675,6.596   c8.796-3.682,11.308-7.977,12.704-10.127c1.396-2.145,4.829-6.267,6.086-7.032c0.586-0.359,2.933-1.854,2.933-1.854   s1.09,0.882,1.538,1.214c0,0,1.034-0.76,3.409-2.603c2.373-1.84,9.216-6.857,10.61-19.998   C86.129,29.904,85.149,28.679,82.357,26.993z M81.659,33.894c-1.257,2.456-4.607,9.205-13.823,9.359   c-3.49,0-8.159-4.803-13.685-8.896c0,0,3.911,0.151,8.098-1.997c4.19-2.147,7.819-4.601,11.591-4.448   C77.61,28.065,83.896,29.446,81.659,33.894z"/>
</g>
</svg>